<svg width="443" height="408" viewBox="0 0 443 408" fill="none" xmlns="http://www.w3.org/2000/svg">
<g filter="url(#filter0_d_22_2)">
<path d="M404 200C404 152.046 386.77 105.688 355.45 69.3753C324.13 33.0622 280.805 9.21116 233.371 2.16887C185.937 -4.87342 137.551 5.36186 97.0324 31.0095C56.5135 56.657 26.5585 96.0094 12.6267 141.895C-1.30523 187.781 1.71348 237.144 21.1326 280.991C40.5517 324.837 75.0784 360.246 118.42 380.765C161.763 401.285 211.035 405.548 257.257 392.779C303.48 380.009 343.575 351.057 370.237 311.198L204 200H404Z" fill="url(#paint0_linear_22_2)" fill-opacity="0.9"/>
</g>
<path d="M408.521 321.198C430.533 288.291 442.283 249.591 442.283 210H242.283L408.521 321.198Z" fill="white" stroke="white"/>
<defs>
<filter id="filter0_d_22_2" x="0" y="0" width="408" height="408" filterUnits="userSpaceOnUse" color-interpolation-filters="sRGB">
<feFlood flood-opacity="0" result="BackgroundImageFix"/>
<feColorMatrix in="SourceAlpha" type="matrix" values="0 0 0 0 0 0 0 0 0 0 0 0 0 0 0 0 0 0 127 0" result="hardAlpha"/>
<feOffset dy="4"/>
<feGaussianBlur stdDeviation="2"/>
<feComposite in2="hardAlpha" operator="out"/>
<feColorMatrix type="matrix" values="0 0 0 0 0.776471 0 0 0 0 0.419608 0 0 0 0 0 0 0 0 0.25 0"/>
<feBlend mode="normal" in2="BackgroundImageFix" result="effect1_dropShadow_22_2"/>
<feBlend mode="normal" in="SourceGraphic" in2="effect1_dropShadow_22_2" result="shape"/>
</filter>
<linearGradient id="paint0_linear_22_2" x1="281.333" y1="253.333" x2="97.3329" y2="-53.3331" gradientUnits="userSpaceOnUse">
<stop stop-color="#FF753D"/>
<stop offset="1" stop-color="#FFDB80" stop-opacity="0.76"/>
</linearGradient>
</defs>
</svg>
